<?xml version="1.0" standalone="no"?>
<!DOCTYPE svg PUBLIC "-//W3C//DTD SVG 20010904//EN"
 "http://www.w3.org/TR/2001/REC-SVG-20010904/DTD/svg10.dtd">
<svg version="1.0" xmlns="http://www.w3.org/2000/svg"
 width="1920.000000pt" height="1080.000000pt" viewBox="0 0 1920.000000 1080.000000"
 preserveAspectRatio="xMidYMid meet">

<g transform="translate(0.000000,1080.000000) scale(0.100000,-0.100000)"
fill="#000000" stroke="none">
<path d="M7448 9618 c-27 -6 -48 -14 -48 -19 0 -4 34 -170 75 -369 41 -199 75
-367 75 -375 0 -15 -148 -205 -159 -205 -4 0 -19 46 -33 103 -14 56 -37 143
-51 192 -57 208 -89 326 -116 427 -16 59 -32 111 -35 117 -6 9 -110 -10 -123
-22 -5 -6 111 -439 218 -817 21 -74 39 -141 39 -148 0 -7 -54 -94 -121 -193
-66 -100 -160 -258 -209 -352 -89 -173 -161 -361 -144 -376 5 -5 30 -15 56
-24 35 -12 49 -13 56 -4 5 7 21 53 37 102 35 115 151 339 272 528 53 81 97
146 100 144 4 -4 62 -209 88 -312 l18 -70 -60 -95 c-106 -167 -202 -373 -218
-467 -7 -42 -6 -42 32 -52 63 -18 82 -14 88 17 15 69 62 187 116 292 98 190
81 196 173 -57 44 -120 101 -267 128 -328 52 -117 136 -265 151 -265 18 0 97
52 97 65 0 7 -11 28 -24 48 -32 47 -128 244 -159 327 -14 36 -61 165 -105 288
l-81 223 51 82 c28 45 59 91 69 101 22 24 12 49 92 -229 90 -309 238 -683 307
-774 l15 -21 45 24 c52 28 56 36 37 73 -7 16 -30 60 -49 98 -67 130 -176 431
-247 681 -39 137 -74 263 -77 279 -5 26 4 43 63 120 38 50 179 236 313 414
l244 324 -44 38 c-24 21 -47 36 -52 33 -4 -3 -134 -173 -289 -379 -155 -206
-284 -373 -286 -371 -3 2 -20 82 -39 178 -19 95 -36 180 -39 189 -3 9 30 59
82 125 261 326 391 491 404 511 12 21 10 25 -26 57 -22 19 -45 35 -52 36 -6 0
-33 -28 -59 -62 -27 -35 -82 -106 -124 -158 -42 -52 -116 -146 -165 -208 -49
-62 -92 -109 -95 -105 -4 5 -26 100 -49 213 -82 402 -85 415 -101 416 -8 1
-36 -3 -62 -8z m178 -1108 c20 -91 38 -177 41 -192 4 -20 -9 -46 -59 -116 -34
-50 -66 -91 -69 -91 -3 -1 -18 45 -33 102 -16 56 -38 139 -51 184 l-22 82 26
39 c40 59 123 164 127 160 1 -2 19 -78 40 -168z"/>
<path d="M11594 9107 l-50 -22 142 -475 141 -475 -21 -30 c-41 -59 -161 -214
-166 -215 -3 0 -74 224 -159 498 -85 273 -158 500 -164 503 -5 4 -33 -3 -62
-14 l-52 -21 22 -71 c42 -136 79 -252 126 -400 26 -82 70 -224 99 -315 28 -91
60 -192 71 -224 10 -33 19 -66 19 -74 0 -16 -208 -294 -288 -386 -30 -34 -110
-118 -179 -187 l-125 -127 42 -46 42 -46 77 71 c114 106 260 268 374 417 55
72 104 132 108 132 7 0 71 -193 72 -215 0 -6 -64 -91 -143 -190 -141 -176
-242 -287 -308 -336 l-32 -24 30 -45 c16 -25 31 -49 33 -54 5 -16 88 49 168
131 59 61 172 195 296 352 7 9 14 -9 53 -134 22 -71 44 -133 49 -138 9 -9 74
5 99 21 10 7 0 48 -43 188 -30 98 -55 184 -55 189 0 6 39 67 87 137 l87 128
38 -128 c87 -286 99 -321 107 -327 8 -4 99 21 109 30 2 2 -31 120 -74 262 -42
142 -77 272 -78 288 -1 24 76 143 362 564 199 294 362 537 362 540 0 3 -23 21
-51 39 -50 33 -52 33 -69 15 -15 -15 -555 -815 -631 -935 -13 -20 -27 -37 -30
-38 -3 0 -17 41 -31 91 l-26 91 171 222 c94 121 246 319 339 438 92 119 168
221 168 225 0 14 -83 74 -99 71 -8 -2 -140 -168 -295 -369 -336 -438 -325
-423 -332 -416 -3 3 -60 189 -126 414 -66 224 -124 416 -129 426 -12 21 -13
21 -75 -6z m335 -1320 c1 -17 -158 -266 -170 -267 -9 0 -23 37 -50 132 l-22
77 28 38 c16 21 58 76 94 123 l66 84 27 -84 c14 -47 27 -93 27 -103z"/>
<path d="M7020 5855 c-6 -7 -13 -36 -17 -64 -4 -33 -9 -49 -16 -42 -10 10 -79
-17 -105 -43 -14 -14 -12 -24 31 -113 45 -94 46 -100 38 -156 -4 -32 -12 -62
-18 -68 -10 -10 -106 157 -162 278 -13 29 -30 53 -38 53 -23 0 -87 -30 -100
-47 -14 -18 12 -74 123 -270 l64 -113 -35 -46 c-20 -26 -45 -64 -56 -85 l-19
-39 40 -20 c52 -26 57 -26 76 13 26 52 45 69 61 56 18 -15 16 -61 -6 -204 -10
-66 -19 -148 -20 -182 l-2 -63 48 0 c27 0 54 5 61 12 7 7 12 35 12 63 1 27 7
79 13 115 l13 65 128 -195 c71 -107 168 -244 215 -305 109 -138 104 -129 88
-162 -12 -22 -68 -177 -92 -251 -5 -14 27 -29 70 -34 25 -3 28 2 62 102 19 58
38 108 42 113 4 4 27 -16 51 -44 38 -45 47 -65 71 -163 35 -141 90 -298 139
-396 40 -80 111 -177 136 -187 17 -6 72 41 84 72 6 15 -2 31 -35 67 -24 26
-61 85 -83 130 -44 91 -95 228 -85 228 3 0 35 -26 71 -57 78 -70 170 -144 244
-197 55 -39 55 -39 57 -95 2 -66 16 -156 37 -230 13 -47 18 -52 37 -47 12 4
34 9 49 12 34 8 38 31 17 110 -18 66 -30 134 -23 134 3 0 32 -14 65 -31 89
-45 204 -87 293 -109 43 -10 80 -21 82 -23 2 -2 -10 -129 -26 -283 -61 -561
-79 -741 -84 -834 -7 -114 6 -376 19 -389 6 -5 28 -6 50 -2 l40 6 -3 245 c-3
199 0 280 17 430 12 102 35 309 51 460 16 151 33 293 36 316 l6 41 61 -4 c72
-5 311 12 391 28 31 7 59 9 62 7 3 -3 -2 -36 -11 -72 -24 -107 -23 -113 31
-121 25 -3 47 -5 49 -3 2 2 14 54 27 116 l23 113 70 21 c155 46 481 186 555
238 14 10 41 26 60 36 103 56 215 129 391 258 192 140 196 142 197 113 1 -37
-1 -35 56 -46 34 -6 49 -5 51 3 6 14 13 55 27 138 11 66 13 69 75 124 61 53
65 55 83 39 17 -16 21 -15 59 11 46 30 46 29 26 64 -13 24 -10 28 98 140 62
63 115 116 119 118 3 2 9 -16 13 -40 12 -78 12 -78 66 -78 49 0 49 0 49 33 0
17 -9 65 -19 105 -11 39 -16 74 -13 76 4 2 42 -1 85 -7 46 -5 90 -6 106 -1
l28 9 -17 53 c-21 63 -18 59 -55 66 -17 2 -31 5 -33 5 -3 1 87 112 190 235 32
39 58 77 58 87 0 17 -77 82 -91 77 -4 -2 -71 -81 -150 -177 -79 -96 -149 -176
-156 -178 -7 -3 -17 13 -23 38 -10 35 -9 45 2 53 41 30 208 180 208 186 0 4
-18 28 -41 53 l-40 47 -87 -76 -86 -76 -9 27 c-8 24 -13 26 -46 20 -73 -13
-71 -10 -55 -68 8 -29 14 -54 14 -57 0 -3 -31 -29 -70 -58 -51 -40 -75 -52
-90 -47 -14 4 -20 2 -20 -8 0 -25 -37 -62 -115 -116 -80 -56 -78 -56 -90 13
l-6 38 -45 -5 c-25 -2 -48 -7 -51 -10 -3 -4 -1 -39 4 -80 l9 -74 -47 -31 c-42
-27 -52 -30 -81 -22 -45 14 -43 15 -56 -29 -7 -21 -22 -45 -35 -54 -59 -38
-307 -162 -437 -217 -247 -105 -594 -207 -589 -172 1 4 1 48 0 98 l-1 91 -50
-1 -50 0 0 -113 c0 -62 -3 -113 -7 -113 -5 -1 -71 -9 -148 -19 -77 -10 -184
-19 -239 -20 l-98 -2 7 98 c4 54 9 105 10 115 4 17 -21 28 -67 28 -30 0 -33
-10 -43 -115 -3 -33 -8 -74 -11 -92 l-5 -32 -52 5 c-84 9 -206 34 -292 61
-125 39 -117 26 -85 150 19 72 25 113 19 125 -5 9 -9 25 -9 36 0 10 -11 24
-25 30 -22 10 -26 9 -38 -16 -8 -15 -26 -74 -41 -132 -15 -58 -29 -106 -30
-107 -1 -1 -33 14 -71 34 -113 59 -236 146 -374 265 l-43 37 44 63 c76 106 98
140 98 152 0 12 -63 56 -79 56 -6 0 -40 -43 -77 -96 l-67 -96 -40 40 -40 40
-33 219 c-19 120 -34 219 -34 221 0 4 -65 2 -87 -4 -30 -8 -33 -33 -17 -122 7
-42 13 -88 14 -102 0 -24 0 -24 -22 7 -13 17 -44 58 -71 91 -62 80 -149 220
-142 232 3 4 23 11 45 15 58 10 72 35 53 91 -15 44 -15 45 -54 39 -22 -3 -58
-13 -80 -21 -23 -7 -43 -14 -44 -14 -2 0 -13 17 -25 37 l-21 37 22 148 c12 82
20 151 17 153 -3 3 -26 9 -51 14 -34 6 -50 5 -57 -4z m122 -648 c59 -97 241
-339 313 -417 41 -45 41 -46 59 -174 10 -80 13 -133 7 -139 -13 -13 -140 149
-256 328 -54 83 -129 197 -167 254 -37 58 -66 112 -64 120 3 9 8 36 11 61 14
86 26 82 97 -33z m4053 -351 c33 -7 60 -17 60 -23 0 -5 -57 -70 -127 -142
l-128 -132 -60 33 c-56 31 -60 35 -60 69 0 34 4 39 63 75 34 21 89 59 122 86
33 26 62 47 65 47 3 0 32 -6 65 -13z m-420 -389 c-1 -34 -2 -73 -3 -87 -3 -33
-113 -128 -335 -289 -202 -147 -350 -237 -557 -338 -132 -64 -358 -153 -391
-153 -6 0 -8 8 -5 18 4 17 13 138 25 362 l6 115 75 18 c248 58 550 168 765
278 150 77 288 150 308 165 16 10 27 9 66 -8 l48 -19 -2 -62z m-2997 7 c86
-74 273 -200 379 -256 l71 -37 -24 -133 c-13 -73 -24 -151 -24 -173 -2 -77 -8
-78 -86 -19 -88 67 -336 304 -363 347 -18 30 -71 233 -71 274 0 18 26 63 36
63 3 0 40 -30 82 -66z m682 -375 c52 -16 150 -37 217 -46 121 -17 122 -17 118
-43 -3 -14 -12 -97 -21 -185 -8 -88 -19 -187 -23 -220 l-6 -60 -35 2 c-57 2
-223 63 -328 118 l-97 52 -3 58 c-3 55 32 338 44 357 4 5 13 6 23 2 9 -3 59
-19 111 -35z m950 -76 c0 -67 -28 -445 -34 -450 -8 -8 -130 -34 -203 -43 -81
-11 -307 -15 -321 -6 -5 3 -5 33 -1 68 4 35 10 90 13 123 34 327 33 321 54
322 9 0 62 2 117 3 55 1 145 8 200 15 55 7 117 13 138 14 l37 1 0 -47z"/>
<path d="M8692 4941 c-18 -22 -32 -46 -32 -55 0 -22 106 -101 195 -146 259
-128 579 -104 878 68 87 51 93 64 50 121 -14 20 -27 37 -29 39 -1 2 -21 -9
-45 -23 -80 -51 -134 -76 -239 -112 -195 -66 -399 -56 -563 28 -34 17 -78 43
-97 59 -84 65 -83 65 -118 21z"/>
</g>
</svg>
